<svg xmlns="http://www.w3.org/2000/svg" width="720" height="420" viewBox="0 0 720 420" font-family="system-ui, sans-serif" font-size="12">
<rect width="720" height="420" fill="#ffffff"/>
<text x="360" y="22" text-anchor="middle" font-size="15" font-weight="600">Calls against difficulty</text>
<text x="64" y="384" text-anchor="middle" fill="#444">1560</text>
<text x="58" y="372" text-anchor="end" fill="#444">0</text>
<line x1="64" y1="368" x2="696" y2="368" stroke="#eee"/>
<text x="222" y="384" text-anchor="middle" fill="#444">1560</text>
<text x="58" y="290" text-anchor="end" fill="#444">3.25</text>
<line x1="64" y1="286" x2="696" y2="286" stroke="#eee"/>
<text x="380" y="384" text-anchor="middle" fill="#444">1560</text>
<text x="58" y="208" text-anchor="end" fill="#444">6.50</text>
<line x1="64" y1="204" x2="696" y2="204" stroke="#eee"/>
<text x="538" y="384" text-anchor="middle" fill="#444">1561</text>
<text x="58" y="126" text-anchor="end" fill="#444">9.75</text>
<line x1="64" y1="122" x2="696" y2="122" stroke="#eee"/>
<text x="696" y="384" text-anchor="middle" fill="#444">1561</text>
<text x="58" y="44" text-anchor="end" fill="#444">13</text>
<line x1="64" y1="40" x2="696" y2="40" stroke="#eee"/>
<line x1="64" y1="368" x2="696" y2="368" stroke="#444"/>
<line x1="64" y1="40" x2="64" y2="368" stroke="#444"/>
<text x="380" y="408" text-anchor="middle" fill="#222">task rating</text>
<text transform="translate(14 204) rotate(-90)" text-anchor="middle" fill="#222">calls</text>
<circle cx="64.0" cy="140.9" r="3" fill="#1f77b4"/>
<circle cx="64.0" cy="166.2" r="3" fill="#1f77b4"/>
<circle cx="64.0" cy="216.6" r="3" fill="#1f77b4"/>
<circle cx="64.0" cy="40.0" r="3" fill="#1f77b4"/>
<circle cx="64.0" cy="216.6" r="3" fill="#1f77b4"/>
<circle cx="64.0" cy="191.4" r="3" fill="#1f77b4"/>
<circle cx="64.0" cy="65.2" r="3" fill="#1f77b4"/>
<circle cx="64.0" cy="140.9" r="3" fill="#1f77b4"/>
<circle cx="64.0" cy="140.9" r="3" fill="#1f77b4"/>
<circle cx="64.0" cy="216.6" r="3" fill="#1f77b4"/>
<rect x="496" y="46" width="10" height="10" fill="#1f77b4"/>
<text x="510" y="55" fill="#222">solved</text>
<rect x="496" y="62" width="10" height="10" fill="#d62728"/>
<text x="510" y="71" fill="#222">failed</text>
</svg>
