<svg xmlns="http://www.w3.org/2000/svg" width="720" height="420" viewBox="0 0 720 420" font-family="system-ui, sans-serif" font-size="12">
<rect width="720" height="420" fill="#ffffff"/>
<text x="360" y="22" text-anchor="middle" font-size="15" font-weight="600">logbook-hard: pass rate against cost</text>
<text x="64" y="384" text-anchor="middle" fill="#444">0</text>
<text x="58" y="372" text-anchor="end" fill="#444">0%</text>
<line x1="64" y1="368" x2="696" y2="368" stroke="#eee"/>
<text x="222" y="384" text-anchor="middle" fill="#444">0.17</text>
<text x="58" y="290" text-anchor="end" fill="#444">25%</text>
<line x1="64" y1="286" x2="696" y2="286" stroke="#eee"/>
<text x="380" y="384" text-anchor="middle" fill="#444">0.33</text>
<text x="58" y="208" text-anchor="end" fill="#444">50%</text>
<line x1="64" y1="204" x2="696" y2="204" stroke="#eee"/>
<text x="538" y="384" text-anchor="middle" fill="#444">0.50</text>
<text x="58" y="126" text-anchor="end" fill="#444">75%</text>
<line x1="64" y1="122" x2="696" y2="122" stroke="#eee"/>
<text x="696" y="384" text-anchor="middle" fill="#444">0.67</text>
<text x="58" y="44" text-anchor="end" fill="#444">100%</text>
<line x1="64" y1="40" x2="696" y2="40" stroke="#eee"/>
<line x1="64" y1="368" x2="696" y2="368" stroke="#444"/>
<line x1="64" y1="40" x2="64" y2="368" stroke="#444"/>
<text x="380" y="408" text-anchor="middle" fill="#222">dollars per task</text>
<text transform="translate(14 204) rotate(-90)" text-anchor="middle" fill="#222">pass rate</text>
<polyline fill="none" stroke="#999" stroke-width="1.5" stroke-dasharray="5 4" points="71.0,269.6 86.3,138.4"/>
<circle cx="628.3" cy="335.2" r="3" fill="#1f77b4"/>
<circle cx="550.8" cy="335.2" r="3" fill="#1f77b4"/>
<circle cx="498.2" cy="302.4" r="3" fill="#1f77b4"/>
<rect x="496" y="46" width="10" height="10" fill="#1f77b4"/>
<text x="510" y="55" fill="#222">Claude Haiku 4.5</text>
<circle cx="123.2" cy="258.7" r="3" fill="#d62728"/>
<circle cx="86.3" cy="138.4" r="3" fill="#d62728"/>
<circle cx="71.0" cy="269.6" r="3" fill="#d62728"/>
<rect x="496" y="62" width="10" height="10" fill="#d62728"/>
<text x="510" y="71" fill="#222">GPT-6 Luna</text>
<text x="622.3" y="329.2" text-anchor="end" font-size="11" fill="#333">learning</text>
<text x="556.8" y="329.2" text-anchor="start" font-size="11" fill="#333">frozen</text>
<text x="504.2" y="296.4" text-anchor="start" font-size="11" fill="#333">plain</text>
<text x="129.2" y="252.7" text-anchor="start" font-size="11" fill="#333">learning</text>
<text x="92.3" y="132.4" text-anchor="start" font-size="11" fill="#333">frozen</text>
<text x="77.0" y="263.6" text-anchor="start" font-size="11" fill="#333">plain</text>
</svg>
